<svg id="Layer_1" data-name="Layer 1" xmlns="http://www.w3.org/2000/svg" width="100" height="100" viewBox="0 0 100 100"><path d="M50,.38A27.69,27.69,0,1,1,22.32,28.06,27.68,27.68,0,0,1,50,.38" fill="#53ae94"/><path d="M53.42,24.37V20.26h9.41V14H37.19v6.28h9.42v4.11C39,24.72,33.2,26.24,33.2,28.05S39,31.39,46.61,31.74V44.93h6.81V31.74c7.64-.35,13.38-1.87,13.38-3.68s-5.74-3.33-13.38-3.69m0,6.25h0c-.19,0-1.18.07-3.38.07-1.76,0-3-.05-3.43-.07h0c-6.76-.3-11.81-1.47-11.81-2.88s5.05-2.59,11.81-2.89v4.6c.45,0,1.71.1,3.46.1,2.1,0,3.16-.08,3.35-.1v-4.6c6.75.3,11.79,1.48,11.79,2.88s-5,2.59-11.79,2.89" fill="#fff"/><path d="M72.32,100A27.69,27.69,0,1,0,44.63,72.32,27.61,27.61,0,0,0,72.32,100Z" fill="#2775ca"/><path d="M79.93,76.7c0-4-2.42-5.42-7.27-6-3.46-.46-4.15-1.38-4.15-3s1.15-2.65,3.46-2.65c2.08,0,3.23.69,3.81,2.42a.86.86,0,0,0,.8.58h1.85a.79.79,0,0,0,.81-.81v-.11a5.76,5.76,0,0,0-5.19-4.73V59.63c0-.46-.35-.81-.93-.92H71.39c-.46,0-.8.34-.92.92v2.65c-3.46.46-5.65,2.77-5.65,5.65,0,3.81,2.31,5.31,7.15,5.89,3.23.57,4.27,1.26,4.27,3.11S74.62,80,72.43,80c-3,0-4-1.26-4.38-3a.84.84,0,0,0-.81-.7h-2a.79.79,0,0,0-.81.81v.12c.46,2.88,2.31,5,6.12,5.53v2.77c0,.46.34.81.92.92h1.73c.46,0,.81-.34.92-.92V82.81c3.46-.57,5.77-3,5.77-6.11Z" fill="#fff"/><path d="M66.43,88.81a17.26,17.26,0,0,1,0-32.41,1.16,1.16,0,0,0,.7-1.16V53.63a.87.87,0,0,0-.7-.92.73.73,0,0,0-.46.11,20.76,20.76,0,0,0,0,39.57.7.7,0,0,0,1-.46c.12-.12.12-.24.12-.47V89.85A1.53,1.53,0,0,0,66.43,88.81Zm12.23-36a.7.7,0,0,0-1,.46c-.11.12-.11.23-.11.47v1.61a1.51,1.51,0,0,0,.69,1.15,17.26,17.26,0,0,1,0,32.42,1.15,1.15,0,0,0-.69,1.15v1.61a.88.88,0,0,0,.69.93.67.67,0,0,0,.46-.12,20.72,20.72,0,0,0,13.5-26.07,21,21,0,0,0-13.5-13.61Z" fill="#fff"/><g id="Layer_1-2" data-name="Layer_1"><path d="M27.68,44.63A27.69,27.69,0,1,1,0,72.32,27.69,27.69,0,0,1,27.68,44.63Z" fill="#f5ac37"/><path d="M28.7,74.27H39.22c.23,0,.33,0,.35-.29a19.23,19.23,0,0,0,0-3.22c0-.21-.1-.29-.33-.29H18.31c-.26,0-.33.08-.33.32v3.08c0,.4,0,.4.41.4Zm9.69-7.4a.36.36,0,0,0,0-.25,6.94,6.94,0,0,0-.62-1.09,9,9,0,0,0-1.28-1.61,4.17,4.17,0,0,0-.8-.77,12.25,12.25,0,0,0-5.19-2.63,13.18,13.18,0,0,0-2.94-.32H18.27c-.26,0-.29.11-.29.33v6.15c0,.25,0,.32.32.32h20s.17,0,.21-.13Zm0,11a4.31,4.31,0,0,0-.88,0H18.32c-.26,0-.34,0-.34.35v6c0,.28,0,.35.34.35h8.86a4.41,4.41,0,0,0,1.26-.09,13.13,13.13,0,0,0,3.76-.83,6.57,6.57,0,0,0,1.26-.59h.12a11.17,11.17,0,0,0,4.83-4.86s.12-.26,0-.33ZM14.5,87.68V78.11c0-.22,0-.26-.28-.26H10.47c-.21,0-.3,0-.3-.27V74.29h4c.22,0,.31,0,.31-.29V70.74c0-.21,0-.26-.28-.26H10.47c-.21,0-.3,0-.3-.27v-3c0-.19,0-.24.28-.24h3.72c.26,0,.33,0,.33-.33V57.27c0-.28,0-.35.35-.35h13a20.16,20.16,0,0,1,2.8.31,17,17,0,0,1,5.42,2,15.41,15.41,0,0,1,3.05,2.35,17.09,17.09,0,0,1,1.85,2.3,14.37,14.37,0,0,1,1.35,2.65.44.44,0,0,0,.51.36h3.1c.4,0,.4,0,.42.38v2.84c0,.28-.11.35-.38.35H43.55c-.24,0-.31,0-.3.31a16.79,16.79,0,0,1,0,3.17c0,.29,0,.32.33.32h2.74c.12.16,0,.32,0,.47s0,.41,0,.61v2.09c0,.3-.09.38-.35.38H42.7a.43.43,0,0,0-.5.33,13.87,13.87,0,0,1-3.64,5.3,19,19,0,0,1-1.85,1.48c-.69.4-1.36.82-2.07,1.15a18.88,18.88,0,0,1-4.09,1.29,21.09,21.09,0,0,1-4.05.33h-12v0Z" fill="#fefefd"/></g></svg>